<svg width="20" height="20" viewBox="0 0 20 20" fill="none" xmlns="http://www.w3.org/2000/svg">
<path d="M1.05715 1.05715C1.57785 0.536451 2.42207 0.536451 2.94277 1.05715L9.99996 8.11434L17.0572 1.05715C17.5779 0.536451 18.4221 0.536451 18.9428 1.05715C19.4635 1.57785 19.4635 2.42207 18.9428 2.94277L11.8856 9.99996L18.9428 17.0572C19.4635 17.5779 19.4635 18.4221 18.9428 18.9428C18.4221 19.4635 17.5779 19.4635 17.0572 18.9428L9.99996 11.8856L2.94277 18.9428C2.42207 19.4635 1.57785 19.4635 1.05715 18.9428C0.536451 18.4221 0.536451 17.5779 1.05715 17.0572L8.11434 9.99996L1.05715 2.94277C0.536451 2.42207 0.536451 1.57785 1.05715 1.05715Z" fill="white"/>
</svg>
